<?xml version="1.0" standalone="no"?>
<!DOCTYPE svg PUBLIC "-//W3C//DTD SVG 20010904//EN"
 "http://www.w3.org/TR/2001/REC-SVG-20010904/DTD/svg10.dtd">
<svg version="1.0" xmlns="http://www.w3.org/2000/svg"
 width="943.000000pt" height="943.000000pt" viewBox="0 0 943.000000 943.000000"
 preserveAspectRatio="xMidYMid meet">
<metadata>
Created by potrace 1.14, written by Peter Selinger 2001-2017
</metadata>
<g transform="translate(0.000000,943.000000) scale(0.100000,-0.100000)"
fill="#000000" stroke="none">
<path d="M1319 9236 c-2 -2 -24 -7 -49 -10 -25 -3 -70 -13 -100 -21 -30 -8
-62 -17 -70 -19 -25 -6 -95 -40 -101 -49 -3 -5 -13 -9 -21 -11 -20 -2 -100
-67 -156 -126 -50 -51 -117 -146 -147 -205 -11 -22 -24 -43 -28 -46 -5 -3 -9
-10 -9 -15 -1 -12 -8 -32 -31 -83 -22 -51 -47 -119 -52 -142 -2 -9 -12 -47
-24 -85 -11 -38 -22 -80 -25 -94 -2 -14 -9 -45 -14 -70 -6 -25 -13 -62 -16
-84 -4 -21 -8 -41 -10 -45 -2 -3 -6 -28 -10 -56 -3 -27 -9 -66 -12 -85 -3 -19
-7 -55 -10 -80 -3 -25 -7 -58 -9 -75 -9 -68 -21 -221 -30 -365 -10 -183 -14
-284 -20 -510 -3 -129 -8 -298 -10 -375 l-3 -140 -51 -115 c-28 -63 -51 -120
-51 -127 0 -7 -5 -13 -10 -13 -6 0 -9 -3 -8 -7 1 -9 -6 -28 -35 -93 -12 -25
-22 -49 -23 -55 -1 -5 -16 -41 -34 -80 -62 -137 -71 -156 -87 -198 -9 -23 -20
-45 -25 -48 -14 -9 17 -42 43 -45 13 -1 35 -5 49 -7 61 -12 97 -18 125 -20 17
-2 36 -7 43 -11 7 -4 16 -5 21 -2 13 9 27 -16 25 -44 0 -14 -5 -128 -9 -255
-4 -126 -9 -270 -11 -320 -2 -49 -4 -97 -4 -105 -4 -262 -4 -780 0 -780 3 0 5
-39 6 -88 1 -87 12 -286 19 -352 2 -19 6 -66 10 -105 3 -38 7 -83 9 -100 10
-79 17 -133 22 -160 3 -16 7 -46 9 -65 2 -19 6 -48 9 -65 3 -16 9 -46 12 -65
3 -19 8 -46 11 -60 2 -14 5 -33 6 -42 1 -10 4 -18 7 -18 3 0 5 -10 6 -22 1
-23 6 -48 18 -98 4 -14 8 -36 10 -50 2 -14 6 -32 9 -40 3 -8 11 -40 18 -70 6
-30 14 -59 18 -65 3 -5 6 -14 6 -20 1 -14 36 -136 53 -185 3 -8 6 -17 7 -20 3
-12 27 -86 32 -100 4 -8 7 -17 8 -20 9 -33 78 -215 101 -267 8 -17 14 -34 14
-37 0 -6 42 -99 93 -206 17 -36 31 -67 32 -70 0 -3 6 -14 12 -25 6 -11 29 -54
51 -95 21 -41 49 -92 61 -112 11 -21 30 -54 41 -73 19 -34 49 -83 99 -160 14
-22 29 -42 34 -43 4 -2 7 -8 7 -14 0 -9 40 -67 73 -102 9 -11 17 -26 17 -33 0
-7 3 -13 8 -13 4 0 26 -26 50 -58 23 -31 58 -74 77 -95 19 -21 35 -40 35 -42
0 -8 226 -230 269 -265 24 -19 48 -39 55 -45 26 -23 123 -93 146 -105 14 -7
27 -16 30 -20 16 -24 305 -163 362 -174 7 -2 20 -6 28 -9 8 -4 26 -9 40 -11
14 -3 25 -5 25 -6 0 -3 38 -10 125 -24 103 -17 316 -17 419 -1 42 7 83 12 91
13 8 0 26 3 40 7 14 3 36 8 50 11 152 30 454 132 700 237 14 6 27 11 30 12 3
1 28 12 55 25 28 13 52 25 55 25 3 1 37 16 75 35 39 19 72 34 75 35 27 9 186
89 191 97 3 5 10 9 15 8 12 -2 228 103 232 113 2 4 8 7 12 7 14 0 224 104 232
115 4 5 8 6 8 1 0 -5 6 -3 13 3 8 6 17 8 20 4 4 -3 7 -2 7 4 0 6 24 21 53 33
28 12 106 49 171 81 65 33 125 59 133 59 7 0 13 5 13 10 0 6 3 9 8 8 7 -1 33
11 190 83 35 16 66 29 69 29 3 0 21 7 41 16 126 55 224 94 238 94 8 0 14 5 14
12 0 6 3 9 6 5 3 -3 35 5 70 19 35 13 74 24 86 23 13 0 38 1 56 3 17 3 32 0
32 -4 0 -5 8 -5 18 -1 9 5 24 8 32 7 8 -1 21 -2 28 -3 6 0 12 -7 12 -13 1 -7
10 -24 21 -38 l21 -24 665 -1 c366 0 669 3 674 6 6 3 11 19 12 34 2 22 9 30
30 36 15 4 27 3 27 -1 0 -5 13 -5 29 0 17 5 33 4 39 -2 6 -6 12 -6 16 1 4 5
13 8 21 4 18 -6 16 -18 20 182 1 88 7 174 12 190 14 45 10 79 -9 83 -16 3 -30
-29 -44 -103 -5 -24 -14 -66 -18 -80 -14 -51 -50 -211 -48 -217 1 -5 -12 -8
-29 -8 -26 0 -29 3 -25 20 3 11 8 29 11 39 3 11 8 28 10 38 2 10 8 38 14 63 7
25 14 54 16 65 3 11 14 62 26 113 11 51 23 91 26 89 2 -3 30 2 61 10 31 8 62
16 67 17 6 1 15 4 20 8 6 3 26 9 45 14 49 11 49 11 55 14 3 1 10 4 15 5 6 1
11 3 13 5 1 1 9 3 17 5 19 3 180 53 200 62 8 3 21 7 27 9 7 1 44 14 83 29 39
15 76 28 83 29 6 1 19 6 27 11 8 5 20 10 25 11 24 4 235 105 324 155 57 32
178 113 225 151 84 68 236 233 236 257 0 6 5 11 10 11 6 0 10 7 10 15 0 8 3
15 8 15 4 0 20 26 37 58 16 31 32 59 36 62 4 3 10 20 14 37 3 18 11 33 17 33
6 0 8 3 5 7 -4 3 -2 12 4 20 6 7 8 13 5 13 -4 0 -1 10 6 23 7 12 11 26 10 31
-2 4 1 13 6 20 8 10 26 74 37 132 2 11 4 19 5 19 5 0 29 163 35 240 12 143 2
450 -20 565 -2 14 -7 45 -11 70 -3 24 -7 47 -9 50 -2 3 -6 26 -10 50 -8 51
-13 75 -15 75 -1 0 -4 14 -6 30 -7 39 -51 207 -71 263 -8 25 -16 52 -18 61 -6
29 -63 184 -95 261 -17 41 -38 92 -46 113 -7 22 -22 55 -33 75 -10 21 -34 69
-53 107 -44 92 -111 219 -118 225 -3 3 -16 25 -29 50 -13 25 -37 64 -53 87
-15 23 -28 44 -28 48 0 4 -6 12 -13 20 -11 11 -95 131 -122 173 -10 15 -41 54
-60 76 -5 6 -22 27 -36 46 -29 37 -37 47 -132 155 -65 72 -199 207 -286 286
-44 41 -121 129 -256 293 -22 27 -49 59 -60 70 -11 12 -36 41 -55 66 -19 25
-37 47 -40 50 -5 5 -24 28 -100 119 -19 23 -46 55 -60 71 -14 16 -45 54 -70
84 -25 31 -49 56 -55 56 -9 0 -52 -34 -110 -87 -11 -10 -37 -31 -57 -47 l-38
-28 -92 47 c-51 26 -96 52 -100 59 -4 6 -8 8 -8 4 0 -3 -37 14 -82 38 -46 24
-90 47 -98 50 -8 4 -55 26 -105 49 -49 24 -115 54 -145 68 -30 14 -89 40 -130
59 -41 19 -165 72 -275 117 -110 46 -219 92 -242 102 -24 11 -49 19 -56 19 -7
0 -17 4 -22 9 -6 5 -38 19 -73 31 -34 13 -60 25 -58 27 3 4 1603 7 1843 4 l51
-1 0 -232 c-1 -202 1 -233 15 -242 9 -6 19 -7 24 -3 7 8 12 463 5 504 l-4 23
-957 0 c-526 -1 -986 -1 -1023 0 -64 0 -68 1 -68 23 0 25 -25 130 -39 162 -12
29 -45 96 -62 125 -17 30 -110 143 -122 149 -4 1 -16 11 -25 20 -43 44 -130
85 -232 109 -27 6 -175 8 -175 2 0 -1 -16 -3 -35 -5 -19 -2 -48 -6 -65 -9 -16
-4 -45 -9 -64 -12 -53 -9 -63 -11 -111 -24 -25 -7 -55 -14 -67 -16 -12 -2 -33
-8 -47 -14 -13 -5 -27 -6 -30 -3 -3 3 -11 1 -18 -4 -15 -12 -95 -28 -118 -24
-8 2 -21 8 -28 14 -10 8 20 20 125 49 76 21 147 40 158 42 11 3 48 12 82 21
35 9 73 18 85 21 54 12 74 16 98 19 14 2 25 4 25 5 0 3 37 7 120 15 44 4 82 7
85 8 13 3 125 -16 139 -23 9 -4 30 -14 46 -21 45 -20 146 -93 177 -127 14 -17
39 -50 55 -74 15 -23 31 -44 36 -46 4 -2 7 -8 7 -13 0 -5 11 -32 25 -60 13
-29 22 -55 20 -60 -3 -4 4 -11 16 -14 27 -9 40 11 28 42 -17 45 -61 138 -67
143 -9 7 -52 68 -52 74 0 11 -93 98 -141 132 -84 59 -177 87 -294 90 -55 1
-104 -1 -109 -4 -5 -3 -23 -6 -40 -7 -45 -4 -102 -14 -176 -32 -36 -8 -78 -17
-93 -19 -15 -2 -37 -8 -47 -14 -11 -6 -20 -9 -20 -6 0 2 -21 -3 -47 -11 -27
-8 -59 -17 -73 -19 -14 -3 -45 -12 -70 -21 -25 -8 -54 -16 -65 -18 -11 -2 -44
-10 -73 -18 -52 -15 -54 -15 -120 15 -37 17 -87 39 -112 50 -25 11 -87 40
-138 64 -51 24 -94 44 -96 44 -2 0 -42 17 -88 39 -83 38 -153 71 -258 118 -30
13 -67 31 -81 38 -14 8 -29 12 -33 8 -3 -3 -6 -1 -6 5 0 6 -10 14 -22 18 -13
3 -42 15 -65 25 -39 17 -76 34 -168 74 -16 8 -61 28 -99 44 -38 17 -75 31 -82
31 -8 0 -14 4 -14 8 0 5 -6 9 -14 9 -8 0 -31 8 -52 18 -82 37 -260 108 -269
106 -3 -1 -18 5 -33 13 -84 43 -508 174 -685 210 -7 2 -23 6 -37 9 -23 6 -44
10 -125 23 -16 2 -45 5 -62 6 -18 1 -33 4 -33 7 0 7 -324 13 -331 7z m6123
-2191 c13 -13 28 -30 33 -37 19 -24 100 -123 105 -128 3 -3 62 -72 130 -155
69 -82 132 -156 140 -163 8 -7 0 -5 -18 5 -18 10 -42 26 -52 35 -10 9 -21 14
-24 11 -3 -4 -6 -2 -6 4 0 6 -27 28 -60 49 -33 22 -60 42 -60 47 0 4 -4 7 -9
7 -12 0 -105 61 -109 72 -2 4 -8 8 -13 8 -10 0 -179 102 -218 132 -13 10 -19
18 -14 18 9 0 49 31 112 87 20 18 37 33 38 33 1 0 12 -11 25 -25z m-7082 -823
c-4 -29 -2 -55 2 -58 5 -3 5 -10 2 -16 -3 -5 -8 -103 -11 -216 -2 -114 -5
-218 -6 -232 -2 -27 -14 -29 -92 -16 -22 4 -51 8 -65 10 -14 2 -40 6 -58 10
-37 9 -37 12 4 101 12 28 24 57 26 65 2 8 6 17 9 20 3 3 20 41 38 84 18 44 37
87 41 95 5 9 18 41 30 71 13 30 33 77 46 104 13 28 24 57 25 65 1 9 4 5 8 -8
4 -14 4 -49 1 -79z m7270 -4717 c0 -14 -4 -25 -9 -25 -4 0 -6 11 -3 25 2 14 6
25 8 25 2 0 4 -11 4 -25z"/>
</g>
</svg>
