<?xml version="1.0" encoding="UTF-8" standalone="no"?>
<svg
   xmlns:dc="http://purl.org/dc/elements/1.1/"
   xmlns:cc="http://creativecommons.org/ns#"
   xmlns:rdf="http://www.w3.org/1999/02/22-rdf-syntax-ns#"
   xmlns:svg="http://www.w3.org/2000/svg"
   xmlns="http://www.w3.org/2000/svg"
   xmlns:sodipodi="http://sodipodi.sourceforge.net/DTD/sodipodi-0.dtd"
   xmlns:inkscape="http://www.inkscape.org/namespaces/inkscape"
   viewBox="0 0 942.98 904.96"
   version="1.1"
   id="svg90"
   sodipodi:docname="favicon.svg"
   inkscape:version="1.0.1 (3bc2e813f5, 2020-09-07)">
  <metadata
     id="metadata94">
    <rdf:RDF>
      <cc:Work
         rdf:about="">
        <dc:format>image/svg+xml</dc:format>
        <dc:type
           rdf:resource="http://purl.org/dc/dcmitype/StillImage" />
        <dc:title>drawkit-grape-pack-illustration-20</dc:title>
      </cc:Work>
    </rdf:RDF>
  </metadata>
  <sodipodi:namedview
     pagecolor="#ffffff"
     bordercolor="#666666"
     borderopacity="1"
     objecttolerance="10"
     gridtolerance="10"
     guidetolerance="10"
     inkscape:pageopacity="0"
     inkscape:pageshadow="2"
     inkscape:window-width="1366"
     inkscape:window-height="705"
     id="namedview92"
     showgrid="false"
     inkscape:zoom="0.5945014"
     inkscape:cx="471.48999"
     inkscape:cy="452.48001"
     inkscape:window-x="-8"
     inkscape:window-y="-8"
     inkscape:window-maximized="1"
     inkscape:current-layer="svg90" />
  <defs
     id="defs4">
    <style
       id="style2">.cls-1{fill:#f0f0f0;}.cls-2{fill:#fff;}.cls-3,.cls-5{fill:none;stroke-linecap:round;stroke-linejoin:round;stroke-width:4.78px;}.cls-3{stroke:#1b3c87;}.cls-4{fill:#46dbc9;}.cls-5{stroke:#b6c6fc;}.cls-6{fill:#1b3c87;}.cls-7{fill:#fb5d64;}</style>
  </defs>
  <title
     id="title6">drawkit-grape-pack-illustration-20</title>
  <g
     id="Layer_2"
     data-name="Layer 2"
     transform="matrix(-0.99209966,0,0,1,939.23432,0)">
    <g
       id="Layer_2-2"
       data-name="Layer 2">
      <path
         class="cls-1"
         d="m 845.58,9.7 c 67.88,36 62.29,180.44 65.08,307 2.79,126.56 14,235.19 -17.59,346.92 C 861.48,775.35 787.2,890.11 693.63,903.52 599.78,917.21 486.38,829.78 358.17,783.14 229.96,736.5 87,730.62 30.25,661.07 -26.5,591.52 3.44,458.29 63.21,367 123.26,275.66 213.21,226.5 290.3,192.15 367.11,157.79 431.35,138.24 533.86,92.15 636.65,46.29 777.71,-26.33 845.58,9.7 Z"
         id="path8" />
      <path
         class="cls-2"
         d="m 95.5,532.46 c -7,-2 -28,-15 -32,-20 -4,-5 -13.5,7.13 3.75,23.54"
         id="path10" />
      <path
         class="cls-3"
         d="m 87.5,524.46 c -7,-2 -28,-15 -32,-20 -4,-5 -13.5,7.13 3.75,23.54"
         id="path12" />
      <path
         class="cls-2"
         d="m 175.5,563.46 c -5,-6 -22,-31 -25,-39 -3,-8 -23.43,-16 -10.22,39"
         id="path14" />
      <path
         class="cls-3"
         d="m 165.5,553.46 c -5,-6 -22,-31 -25,-39 -2.59,-6.89 -18.1,-13.78 -13.91,19.6"
         id="path16" />
      <path
         class="cls-2"
         d="m 286.88,654.22 c -6.38,13.24 -34.38,65.24 -34.38,65.24 0,0 -64,-137 -71,-140 -7,-3 -114,-40 -134,-51 -8,-4 -32,3 12,32 44,29 87,53 92,63 5,10 41,165 41,165 h 134.12 c 8.88,0 38.88,-98 38.88,-98 0,0 -71.23,-44.46 -78.62,-36.24 z"
         id="path18" />
      <path
         class="cls-3"
         d="m 172.89,737.54 c 5.56,23.52 9.61,40.92 9.61,40.92 h 134.12 c 8.88,0 38.88,-98 38.88,-98 0,0 -71.23,-44.46 -78.62,-36.24 -6.38,13.24 -34.38,65.24 -34.38,65.24 0,0 -64,-137 -71,-140 -2.16,-0.92 -13.8,-5.07 -29.46,-10.69"
         id="path20" />
      <path
         class="cls-3"
         d="m 76.38,567.76 c 33.3,21 61.15,37.77 65.12,45.7 2.63,5.27 13.89,50.86 23.94,92.78"
         id="path22" />
      <path
         class="cls-3"
         d="M 115.79,549.3 C 83.89,537.71 48.21,524.35 37.5,518.46 c -7.29,-3.64 -27.84,1.84 1.77,24.75"
         id="path24" />
      <path
         class="cls-4"
         d="m 468.06,490.46 c 59.94,31.12 -7.15,186 -44,225.2 -30.17,6.54 -136.6,-44.58 -149.75,-78.52 11.06,-33.45 108.33,-191.04 193.75,-146.68 z"
         id="path26" />
      <polygon
         class="cls-5"
         points="940.59,354.75 696.5,396.31 880.73,217.46 "
         id="polygon28" />
      <rect
         class="cls-5"
         x="109.83"
         y="254.72"
         width="182.84"
         height="160.86"
         transform="rotate(-49.93,201.28595,335.1724)"
         id="rect30" />
      <path
         class="cls-3"
         d="m 346.88,511.32 c 33.8,-30.84 73.63,-50.36 111.18,-30.86 59.94,31.12 -7.15,186 -44,225.2 -30.17,6.54 -136.6,-44.58 -149.75,-78.52 3.45,-10.45 15.32,-33 32.62,-57.78"
         id="path32" />
      <path
         class="cls-3"
         d="m 454.3,454.13 c 24.16,-16.19 52.34,-25.67 85.2,-25.67 124,0 176,164 179,351"
         id="path34" />
      <path
         class="cls-3"
         d="m 347.86,623.4 c 16,-51.75 38.73,-101.52 70.9,-137.81"
         id="path36" />
      <path
         class="cls-3"
         d="m 316.61,778.62 c 2.58,-22.47 6.19,-47.6 11.21,-73.81"
         id="path38" />
      <path
         class="cls-4"
         d="m 728.26,778.46 c -4.84,-182.38 -57.2,-340 -178.76,-340 -154.21,0 -205.33,208.84 -221.68,340 z"
         id="path40" />
      <path
         class="cls-3"
         d="m 797.54,706.23 -29,-67.77 -111,68 c 3.4,12.24 15.12,49.44 22.27,72"
         id="path42" />
      <path
         class="cls-2"
         d="m 797,779 v -87.37 l -18.5,-43.17 -111,68 c 3,10.64 12.2,40.15 19.26,62.5 z"
         id="path44" />
      <path
         class="cls-4"
         d="m 648.5,479.46 c 61,-29 144,118 153,171 -13,28 -118,82 -153,72 -20,-29 -86.93,-201.67 0,-243 z"
         id="path46" />
      <path
         class="cls-3"
         d="m 699.2,485.59 c 44.94,37.56 86.11,118.43 92.3,154.87 -13,28 -118,82 -153,72 A 104.61,104.61 0 0 1 631.94,701"
         id="path48" />
      <path
         class="cls-3"
         d="M 602.12,615 C 590.24,561.45 589.62,501.45 629.26,474.74"
         id="path50" />
      <polyline
         class="cls-3"
         points="762.88 156.46 797.5 156.46 797.5 778.46 175.5 778.46 175.5 748.57"
         id="polyline52" />
      <polyline
         class="cls-3"
         points="175.5 204.63 175.5 156.46 629.26 156.46"
         id="polyline54" />
      <line
         class="cls-3"
         x1="175.5"
         y1="574.59998"
         x2="175.5"
         y2="356.76001"
         id="line56" />
      <path
         class="cls-2"
         d="m 596,344 c -5,20 -14,63 -11,121 -17,15 -74,18 -100,-2 5,-31 5,-61 4,-81 -1,-20 107,-38 107,-38 z"
         id="path58" />
      <path
         class="cls-3"
         d="m 477,455 c 5,-31 5,-61 4,-81 -1,-20 107,-38 107,-38 -5,20 -14,63 -11,121 -10.07,8.88 -34.14,13.55 -57.51,11.74"
         id="path60" />
      <ellipse
         class="cls-2"
         cx="517"
         cy="274.45999"
         rx="103.5"
         ry="132"
         id="ellipse62" />
      <path
         class="cls-3"
         d="M 555.21,382.6 A 85.44,85.44 0 0 1 509,396.46 c -31.74,0 -60.14,-18.22 -79.13,-46.91"
         id="path64" />
      <path
         class="cls-3"
         d="m 410.87,306.55 a 165.42,165.42 0 0 1 -5.37,-42.09 c 0,-72.9 46.33,-132 103.5,-132 57.17,0 103.5,59.1 103.5,132 a 163.55,163.55 0 0 1 -7.94,50.78"
         id="path66" />
      <path
         class="cls-3"
         d="m 466.5,252.46 c -1,10 -14,38 -24,48"
         id="path68" />
      <path
         class="cls-3"
         d="m 473.5,340.46 c 5,0 15,-2 23,-14"
         id="path70" />
      <ellipse
         class="cls-6"
         cx="437.25"
         cy="260.20999"
         rx="10.25"
         ry="4.75"
         transform="rotate(-80.47,437.27024,260.20511)"
         id="ellipse72" />
      <path
         class="cls-7"
         d="m 640.5,220.46 c 0,-53 -58,-89 -97,-101 -31.53,-9.7 -81,-25 -107,-25 -32,0 -57,33 -57,66 0,36 19,63 42,69 4,-12 6,-17 6,-17 4,5 111,18 147,17 -3,13 -5,59 15,60 11,1 51,13 51,-69 z"
         id="path74" />
      <path
         class="cls-3"
         d="m 568,124.46 a 179.28,179.28 0 0 0 -34.52,-15 c -31.53,-9.7 -81,-25 -107,-25 -24.87,0 -45.51,19.92 -53.47,44.29"
         id="path76" />
      <path
         class="cls-3"
         d="m 564.5,219.46 c -3,13 -5,59 15,60 11,1 51,13 51,-69 0,-23.74 -11.64,-44.06 -28,-60.35"
         id="path78" />
      <path
         class="cls-3"
         d="m 372,172.56 c 5.92,24.66 21.46,42.2 39.46,46.9 4,-12 6,-17 6,-17 2.86,3.58 58.57,11.27 103.18,15"
         id="path80" />
      <circle
         class="cls-2"
         cx="596.5"
         cy="292.45999"
         r="27"
         id="circle82" />
      <path
         class="cls-3"
         d="M 561.5,284.46 A 27,27 0 0 1 580.37,258.7"
         id="path84" />
      <path
         class="cls-3"
         d="m 580.37,258.7 a 27,27 0 1 1 8.13,52.76 27.34,27.34 0 0 1 -6.76,-0.85"
         id="path86" />
    </g>
  </g>
</svg>
